<?xml version="1.0" encoding="UTF-8"?><svg id="a" xmlns="http://www.w3.org/2000/svg" viewBox="0 0 1039.16 1360.95"><defs><style>.b{fill:#a38f86;stroke:#000;stroke-miterlimit:10;}.c{fill:#f0e3dd;}</style></defs><path class="c" d="M280.73,.13C212.34-7.92,73.11,366.85,29.01,629.42c-2.7,16.05-4.81,30.35-5.1,32.31-19.94,135.1-39.5,267.7-5.1,401.39,9.95,38.67,48.89,189.99,171.78,267.02,22.17,13.9,93.41,30.03,132.66,30.61,20.05,.3,74.83-13.61,91.84-37.42,4.6-6.45,28.97-29.82,28.91-66.33-.06-39.96-22.01-69.76-67.94-113.98-83.19-80.11-69.73-244.91-52.82-265.29,65.67-79.14,295.05-56.33,348.66-37.42,10.66,3.76,40.92,14.71,45.92,34.02,3.93,15.14,14.31,159.21-5.86,200.66-33.92,69.7-46.44,56.31-97.89,120.79-29.38,36.82-17.26,86.39-13.61,96.94,9.38,27.09,32.77,41.48,45.92,49.32,65.41,39.02,146.5,6.26,159.87,1.7,74.83-25.51,181.62-156.34,200.69-216,79.94-250.02,2.41-644.59-137.76-984.76-7.82-18.99-63.46-154.03-102.05-141.17-39.32,13.11-49.8,65.41-62.27,115.06-30.33,120.77-11.12,92.38-115.46,67.68-51.21-12.12-150.2-10.64-221.96,23.06C330.05,225.2,338.56,6.93,280.73,.13Z"/><ellipse class="b" cx="518.37" cy="885.36" rx="171.78" ry="36.57"/><ellipse cx="722.75" cy="472.92" rx="28.63" ry="44.79"/><path d="M415.06,610.68l12.47-29.48c4.76,2.12,23.73,9.92,46.49,2.83,25.64-7.98,36.94-28.9,38.99-32.88,2.14,3.87,15.95,27.85,44.91,34.02,18.93,4.03,34.33-1.68,40.25-4.25,4.35,9.92,8.69,19.84,13.04,29.76-7.82,3.48-26.94,10.72-51.59,7.37-23.71-3.22-39.77-14.51-46.49-19.84-5.69,5.21-21.05,17.88-44.79,21.54-26.45,4.08-46.71-5.58-53.29-9.07Z"/><ellipse cx="304.35" cy="472.92" rx="28.63" ry="44.79"/><rect x="68.23" y="602.18" width="115.65" height="24.66"/><rect x="85.38" y="541.66" width="115.65" height="24.66" transform="translate(204.84 -14.88) rotate(20.68)"/><rect x="842.83" y="602.18" width="115.65" height="24.66" transform="translate(1801.31 1229.01) rotate(-180)"/><rect x="825.67" y="541.66" width="115.65" height="24.66" transform="translate(1905.7 760.33) rotate(159.32)"/></svg>