<?xml version="1.0" encoding="UTF-8"?><svg id="a" xmlns="http://www.w3.org/2000/svg" viewBox="0 0 404.42 284.04"><defs><style>.k{fill:#fff;}.k,.l,.m,.n{fill-rule:evenodd;}.l{fill:#520;}.m,.o{fill:#f9f9f9;}</style></defs><g id="b"><ellipse id="c" class="o" cx="187.93" cy="234.77" rx="187.93" ry="49.27"/><path id="d" class="k" d="M183.11,204.69c-32.47,.36-64.96,3.11-96.55,10.88-13.14,3.25-26.33,7.52-37.54,15.3-1.35,1.15-3.04,2.34-3.55,4.09,1.53,2.52,4.23,4.17,6.57,5.78,9,5.6,19.31,9.05,29.51,11.96,14.2,3.89,28.7,6.38,43.27,8.34,31.13,4,62.67,4.63,94.05,2.96,24.02-1.4,48.09-4.45,71.41-10.25,12.31-3.24,24.69-7.19,35.37-14.29,1.81-1.3,3.61-2.76,4.73-4.73-.87-1.94-2.88-3.02-4.41-4.4-6.25-4.59-13.61-7.43-20.94-10.13-16.55-5.7-33.8-8.79-51.08-11.31-23.45-3.23-47.15-4.35-70.84-4.21h0Z"/><g id="e" transform="translate(-0.63988428,2.239595)"><path id="f" class="m" d="M189.26,0C116.43,.01,55.6,17.96,48.86,41.42h-.15c-28.83,109.77,14.51,200.1,83.29,200.1h122.39c40.59,0,67.84-49.55,79.22-94.67,7.55,4.59,16.57,7.07,25.82,7.1,24.85,0,44.99-17.29,44.99-38.63,0-21.34-20.14-38.63-44.99-38.63-7.95,.03-15.75,1.87-22.61,5.33-1.33-10.92-3.5-22.33-6.69-34.29,.12-.69,.19-1.39,.21-2.08C330.35,20.44,267.18,0,189.26,0h0Zm169.43,94.77c8.23-.1,16.83,2.55,22.57,8.64,5.57,5.33,6.72,14.64,2.21,20.99-6.19,8.84-17.84,12.53-28.26,11.21-4.6-.59-8.79-2.03-12.61-4.43-2.02-1.07-3.83-2.55-5.34-4.3,.89-7.65,1.21-15.69,1.05-24.04,5.09-5.02,12.5-7.75,19.59-8.05,.26,0,.53-.01,.79-.02h0Z"/><path id="g" class="l" d="M184.76,4.5c-28.89,.45-57.87,3.27-85.81,10.97-12.35,3.53-24.71,7.97-35.27,15.44-4.89,3.57-9.35,7.86-10.78,13.96-1.18,6.86,3.68,12.94,8.78,16.88,10.37,8.22,22.9,12.64,35.47,16.48,27.49,7.83,55.89,10.77,84.36,11.41,24.26,.46,48.42-1.07,72.35-5.09,18.84-3.32,38.26-8,55.35-17.32,5.97-3.46,11.96-7.7,15.42-13.83,2.35-4.35,2.19-9.94-.81-13.95-4.51-6.9-11.72-11.06-18.85-14.71-15.22-7.48-32.15-11.64-48.87-14.71-23.54-4.17-47.39-5.77-71.34-5.53h0Z"/><g id="h" transform="translate(13.927884,1.0713757)"><path id="i" class="n" d="M148.17,106.56c-7.8,0-14.12,9.35-14.12,20.88,0,11.53,6.32,20.88,14.12,20.88h0c7.8,0,14.12-9.35,14.12-20.88,0-11.53-6.32-20.87-14.12-20.88Zm71.84,0c-7.8,0-14.12,9.35-14.12,20.88,0,11.53,6.32,20.88,14.12,20.88h0c7.8,0,14.12-9.35,14.12-20.88h0c0-11.53-6.32-20.88-14.12-20.88Z"/><path id="j" d="M194.46,141.4c-.51,9.71-5.69,13.8-10.54,13.73-4.85-.07-9.94-4.33-10.2-13.69l-2.83,.08c.3,10.41,6.47,16.35,12.99,16.45,6.52,.09,12.85-5.7,13.41-16.42l-2.83-.15Z"/></g></g></g></svg>